PathFileType	4	(X/Y/Z)	C:/Users/CLatella/Desktop/xsens/3Novembre/Meri/Meri-020.trc	
DataRate	CameraRate	NumFrames	NumMarkers	Units	OrigDataRate	OrigDataStartFrame	OrigNumFrames	
240.00	240.00	4	64	mm	240.00	1084	1238	
Frame#	Time	pHipOrigin			pRightASI			pLeftASI			pRightCSI			pLeftCSI			pRightIschialTub			pLeftIschialTub			pSacrum			pL5SpinalProcess			pL3SpinalProcess			pT12SpinalProcess			pPX			pIJ			pT4SpinalProcess			pT8SpinalProcess			pC7SpinalProcess			pTopOfHead			pRightAuricularis			pLeftAuricularis			pBackOfHead			pRightAcromion			pLeftAcromion			pRightArmLatEpicondyle			pRightArmMedEpicondyle			pLeftArmLatEpicondyle			pLeftArmMedEpicondyle			pRightUlnarStyloid			pRightRadialStyloid			pRightOlecranon			pLeftUlnarStyloid			pLeftRadialStyloid			pLeftOlecranon			pRightTopOfHand			pRightPinky			pRightBallHand			pLeftTopOfHand			pLeftPinky			pLeftBallHand			pRightGreaterTrochanter			pRightKneeLatEpicondyle			pRightKneeMedEpicondyle			pRightPatella			pLeftGreaterTrochanter			pLeftKneeLatEpicondyle			pLeftKneeMedEpicondyle			pLeftPatella			pRightLatMalleolus			pRightMedMalleolus			pRightTibialTub			pLeftLatMalleolus			pLeftMedMalleolus			pLeftTibialTub			pRightHeelFoot			pRightFirstMetatarsal			pRightFifthMetatarsal			pRightPivotFoot			pRightHeelCenter			pRightToe			pLeftHeelFoot			pLeftFirstMetatarsal			pLeftFifthMetatarsal			pLeftPivotFoot			pLeftHeelCenter			pLeftToe			
		X1	Y1	Z1	X2	Y2	Z2	X3	Y3	Z3	X4	Y4	Z4	X5	Y5	Z5	X6	Y6	Z6	X7	Y7	Z7	X8	Y8	Z8	X9	Y9	Z9	X10	Y10	Z10	X11	Y11	Z11	X12	Y12	Z12	X13	Y13	Z13	X14	Y14	Z14	X15	Y15	Z15	X16	Y16	Z16	X17	Y17	Z17	X18	Y18	Z18	X19	Y19	Z19	X20	Y20	Z20	X21	Y21	Z21	X22	Y22	Z22	X23	Y23	Z23	X24	Y24	Z24	X25	Y25	Z25	X26	Y26	Z26	X27	Y27	Z27	X28	Y28	Z28	X29	Y29	Z29	X30	Y30	Z30	X31	Y31	Z31	X32	Y32	Z32	X33	Y33	Z33	X34	Y34	Z34	X35	Y35	Z35	X36	Y36	Z36	X37	Y37	Z37	X38	Y38	Z38	X39	Y39	Z39	X40	Y40	Z40	X41	Y41	Z41	X42	Y42	Z42	X43	Y43	Z43	X44	Y44	Z44	X45	Y45	Z45	X46	Y46	Z46	X47	Y47	Z47	X48	Y48	Z48	X49	Y49	Z49	X50	Y50	Z50	X51	Y51	Z51	X52	Y52	Z52	X53	Y53	Z53	X54	Y54	Z54	X55	Y55	Z55	X56	Y56	Z56	X57	Y57	Z57	X58	Y58	Z58	X59	Y59	Z59	X60	Y60	Z60	X61	Y61	Z61	X62	Y62	Z62	X63	Y63	Z63	X64	Y64	Z64	

1084	4.513	205.28642	82.92828	928.78668	265.66182	-35.61245	1008.09846	261.59326	203.93023	1007.49571	224.77532	-15.31988	1076.81190	221.40997	182.63308	1076.30960	157.31761	32.49824	877.75389	155.60982	131.49984	877.50274	135.71908	81.82324	946.66824	166.20816	82.82782	1020.30413	161.23548	82.07438	1124.27842	159.72860	81.01957	1216.04702	299.76739	78.85972	1299.72873	299.26510	76.59941	1410.43372	164.65106	77.80491	1388.68451	161.63731	79.51270	1307.61471	166.20816	77.50353	1438.56203	318.40240	72.68154	1644.70234	256.92195	9.34262	1568.55499	265.51113	139.58673	1565.23987	213.02170	78.05605	1584.07579	208.19971	-97.84633	1390.59321	191.92547	253.75752	1398.62987	338.44382	-55.65387	1101.42417	323.77691	3.46581	1104.08631	332.01449	212.16781	1112.42434	311.72192	154.65546	1111.57045	416.60033	-3.41558	889.90934	452.16255	19.99119	909.95076	313.58040	-40.18330	1093.28705	413.78750	172.83841	900.80906	442.97062	140.39039	918.48971	307.75382	201.97130	1103.83516	561.31043	10.19651	784.27750	489.33210	-17.17836	813.66153	444.87932	2.00916	863.38836	555.53408	216.93957	811.20030	482.50094	223.72050	848.82192	438.75137	180.82484	881.37039	205.48733	-65.74992	901.81364	186.85233	-45.95965	521.62942	188.71081	27.67625	519.67049	229.09502	-7.68506	521.42851	200.26351	232.76175	904.52601	170.97993	228.84388	524.54271	174.59642	155.40890	519.31888	214.12674	191.72455	521.42851	157.26738	-61.27953	97.44449	167.96618	0.50229	93.22525	251.64790	-19.18752	483.60598	149.08003	250.89446	98.75045	153.24905	188.30897	94.07914	237.73443	196.59678	484.71102	123.26226	-25.16479	2.21008	270.98611	-21.14646	1.65756	258.12745	-86.59500	3.41558	283.34247	-56.60822	2.61191	162.08937	-32.69916	6.58001	358.73638	-71.47604	1.75802	108.99719	215.68385	4.42016	256.16852	202.27267	0.00000	247.47888	268.42442	1.05481	270.68473	236.88053	0.05023	148.37682	220.80722	7.63483	346.88231	246.87613	-2.86306 
1085	4.517	205.28642	82.92828	928.78668	265.61159	-35.61245	1008.14869	261.59326	203.88000	1007.49571	224.72509	-15.37011	1076.86213	221.40997	182.63308	1076.30960	157.26738	32.44801	877.75389	155.60982	131.44961	877.50274	135.71908	81.82324	946.66824	166.20816	82.82782	1020.30413	161.23548	82.07438	1124.27842	159.72860	81.01957	1216.04702	299.76739	78.85972	1299.67851	299.26510	76.59941	1410.43372	164.65106	77.80491	1388.68451	161.63731	79.51270	1307.61471	166.20816	77.50353	1438.56203	318.40240	72.63131	1644.75257	256.92195	9.34262	1568.55499	265.51113	139.53650	1565.23987	213.02170	78.05605	1584.07579	208.19971	-97.84633	1390.59321	191.92547	253.75752	1398.62987	338.49405	-55.65387	1101.42417	323.82714	3.46581	1104.13654	332.06472	212.16781	1112.47457	311.77215	154.65546	1111.62068	416.70079	-3.41558	889.95957	452.21278	20.04142	910.00099	313.63063	-40.18330	1093.28705	413.88796	172.83841	900.85929	443.07108	140.39039	918.53994	307.80405	201.97130	1103.88539	561.41089	10.24674	784.37795	489.43256	-17.12813	813.71176	444.97978	2.00916	863.43859	555.68477	216.93957	811.30076	482.65162	223.72050	848.92237	438.85183	180.77461	881.42062	205.48733	-65.74992	901.81364	186.90256	-45.95965	521.62942	188.76104	27.67625	519.67049	229.14525	-7.68506	521.42851	200.26351	232.76175	904.52601	170.97993	228.84388	524.54271	174.59642	155.40890	519.26865	214.12674	191.72455	521.42851	157.26738	-61.27953	97.44449	167.96618	0.50229	93.22525	251.64790	-19.18752	483.60598	149.08003	250.89446	98.75045	153.24905	188.30897	94.07914	237.73443	196.59678	484.71102	123.26226	-25.16479	2.21008	270.98611	-21.14646	1.65756	258.12745	-86.59500	3.41558	283.34247	-56.60822	2.61191	162.08937	-32.69916	6.58001	358.73638	-71.47604	1.75802	108.99719	215.68385	4.42016	256.16852	202.27267	0.00000	247.47888	268.42442	1.05481	270.68473	236.93076	0.05023	148.37682	220.75699	7.63483	346.88231	246.92636	-2.86306 
1086	4.521	205.23619	82.92828	928.78668	265.61159	-35.66268	1008.14869	261.59326	203.88000	1007.49571	224.72509	-15.37011	1076.86213	221.35974	182.58285	1076.30960	157.26738	32.44801	877.75389	155.60982	131.44961	877.50274	135.71908	81.77301	946.66824	166.15793	82.82782	1020.30413	161.23548	82.07438	1124.27842	159.72860	81.01957	1216.04702	299.76739	78.85972	1299.67851	299.26510	76.59941	1410.38349	164.65106	77.80491	1388.68451	161.63731	79.51270	1307.61471	166.20816	77.50353	1438.56203	318.40240	72.63131	1644.75257	256.87172	9.34262	1568.55499	265.51113	139.53650	1565.23987	213.02170	78.05605	1584.07579	208.19971	-97.84633	1390.59321	191.92547	253.75752	1398.62987	338.54428	-55.65387	1101.47439	323.87737	3.46581	1104.13654	332.16518	212.16781	1112.52480	311.82238	154.65546	1111.62068	416.80125	-3.36535	890.00979	452.31323	20.04142	910.10144	313.68086	-40.18330	1093.33728	413.98842	172.83841	900.90951	443.17153	140.39039	918.59016	307.85428	201.97130	1103.88539	561.56157	10.24674	784.47841	489.53301	-17.12813	813.81222	445.08024	2.05939	863.48882	555.83545	216.93957	811.40122	482.75208	223.72050	848.97260	438.95229	180.82484	881.47084	205.43710	-65.80015	901.81364	186.90256	-45.95965	521.62942	188.76104	27.67625	519.67049	229.14525	-7.68506	521.42851	200.21328	232.71152	904.52601	170.97993	228.84388	524.54271	174.59642	155.40890	519.26865	214.12674	191.72455	521.42851	157.26738	-61.27953	97.44449	167.96618	0.50229	93.22525	251.69813	-19.18752	483.60598	149.08003	250.84423	98.75045	153.24905	188.30897	94.07914	237.73443	196.59678	484.71102	123.26226	-25.16479	2.21008	270.98611	-21.14646	1.65756	258.12745	-86.59500	3.41558	283.34247	-56.60822	2.61191	162.08937	-32.69916	6.58001	358.73638	-71.47604	1.75802	108.99719	215.63362	4.42016	256.16852	202.32290	0.00000	247.47888	268.47465	1.05481	270.68473	236.98099	0.05023	148.37682	220.75699	7.63483	346.83208	247.02682	-2.86306 
1087	4.525	205.23619	82.87805	928.78668	265.56136	-35.66268	1008.14869	261.54303	203.88000	1007.49571	224.67486	-15.37011	1076.86213	221.35974	182.58285	1076.30960	157.26738	32.44801	877.75389	155.60982	131.44961	877.50274	135.66886	81.77301	946.66824	166.15793	82.77759	1020.30413	161.18525	82.02415	1124.27842	159.72860	80.96934	1216.04702	299.76739	78.85972	1299.67851	299.26510	76.54918	1410.38349	164.65106	77.80491	1388.68451	161.63731	79.51270	1307.61471	166.25839	77.50353	1438.56203	318.40240	72.58108	1644.75257	256.92195	9.29239	1568.55499	265.51113	139.53650	1565.29010	213.02170	78.05605	1584.07579	208.19971	-97.84633	1390.59321	191.92547	253.75752	1398.62987	338.59450	-55.65387	1101.52462	323.92760	3.46581	1104.18677	332.21541	212.16781	1112.52480	311.87261	154.65546	1111.67091	416.90170	-3.36535	890.06002	452.41369	20.09165	910.15167	313.73109	-40.18330	1093.33728	414.13910	172.83841	900.95974	443.27199	140.39039	918.64039	307.95474	201.97130	1103.93562	561.66203	10.29697	784.52864	489.68370	-17.07790	813.86245	445.18070	2.05939	863.53905	555.93591	216.88934	811.45145	482.90277	223.72050	849.02283	439.05275	180.82484	881.52107	205.43710	-65.80015	901.81364	186.95279	-45.95965	521.62942	188.81127	27.67625	519.67049	229.19548	-7.68506	521.42851	200.21328	232.71152	904.52601	170.97993	228.84388	524.54271	174.64665	155.40890	519.26865	214.17697	191.72455	521.42851	157.26738	-61.27953	97.44449	167.96618	0.50229	93.22525	251.69813	-19.23775	483.60598	149.08003	250.84423	98.75045	153.24905	188.30897	94.07914	237.73443	196.59678	484.71102	123.26226	-25.16479	2.21008	271.03634	-21.14646	1.65756	258.12745	-86.59500	3.41558	283.34247	-56.65845	2.61191	162.13960	-32.69916	6.58001	358.73638	-71.47604	1.75802	108.99719	215.63362	4.42016	256.16852	202.32290	0.00000	247.47888	268.47465	1.05481	270.68473	236.98099	0.05023	148.37682	220.75699	7.63483	346.83208	247.02682	-2.86306 
